<svg id="Layer_1" data-name="Layer 1" xmlns="http://www.w3.org/2000/svg" viewBox="0 0 677.58 272.06"><defs><style>.cls-1{fill:#010101;fill-rule:evenodd;}.cls-2{fill:#1d1d1b;}</style></defs><path class="cls-1" d="M390.44,374H264.88s-82.2-7.46-87.87-49.88c0,0,21.45-36.47,0-59.71,0,0,11.34,35.24-8.5,60.18,0,0-6.8,19.84,12.85,34.58,0,0,14.26,1.7,14,14.83h-28s-23-18.61-25.32-28.63c0,0,8.69-20.12-10.3-49-7.18-10.87-11.81-25.79-12-39.78A133.76,133.76,0,0,1,118.44,238a136,136,0,1,1,266,40.06,12.45,12.45,0,0,1-8.5,8.41,12.3,12.3,0,0,1-11.62-2.36c-.66-.66-1.42-1.23-2.08-1.8a12.18,12.18,0,0,1-4-13.41,113.55,113.55,0,0,0,5-33.26A111.28,111.28,0,0,0,142.15,218c5.86-2.08,13-2.84,21.73-1.89,60.84,3.59,62.17,71.33,81,88.71,7.27,1,16.25.76,19.18-5.57,5.29-11.43,5.66-37.7,30.61-36.38-1,3.69-2.18,7.47-3.22,11.15,26.65.38,15.12,25.23,31.65,25.23,0,0,3.78,24.66-22.2,22.11,0,0-6,6.23-2.45,16.25,9.73,10.11,20.5,19.18,35.14,19.74,35.05,1.32,56.88-2.17,56.88,16.63Zm-82.39-78.23s-1.6-10.86-13.79-10.3c0,0-5.48,9.74,11.05,8.79Z" transform="translate(-118.44 -102)"/><path class="cls-2" d="M573.33,297.42q0,18.25-6.72,32.5A70,70,0,0,1,548,354.1,80.88,80.88,0,0,1,519.86,369a116.61,116.61,0,0,1-34.81,5,124.56,124.56,0,0,1-24.18-2.21A132.24,132.24,0,0,1,441,366.44a96,96,0,0,1-14.64-6.62,39.42,39.42,0,0,1-8.23-5.82,14.72,14.72,0,0,1-3.41-6.12,35.91,35.91,0,0,1-1.1-9.93,54.93,54.93,0,0,1,.4-7.33,17.73,17.73,0,0,1,1.2-4.71,5.25,5.25,0,0,1,2-2.51,5.43,5.43,0,0,1,2.81-.7q2.81,0,7.92,3.41a122.6,122.6,0,0,0,13.14,7.42,128.66,128.66,0,0,0,19.36,7.53,88.7,88.7,0,0,0,26.19,3.51,66.91,66.91,0,0,0,20.56-3,48.45,48.45,0,0,0,16-8.53,36.86,36.86,0,0,0,10.33-13.54,44,44,0,0,0,3.61-18.26q0-11-5-18.86A50.82,50.82,0,0,0,519,268.63,117.14,117.14,0,0,0,500.2,257.8q-10.53-4.92-21.57-10a236.27,236.27,0,0,1-21.47-11.34,91.2,91.2,0,0,1-18.66-14.65A68,68,0,0,1,425.16,202q-5.12-11.33-5.11-27.18,0-16.26,5.92-29a59.64,59.64,0,0,1,16.45-21.37,73.42,73.42,0,0,1,25.08-13.14,105.34,105.34,0,0,1,31.39-4.52,102.4,102.4,0,0,1,17.36,1.51,118.13,118.13,0,0,1,16.45,4A92.64,92.64,0,0,1,546.44,118c4,2.07,6.65,3.75,7.93,5a15.79,15.79,0,0,1,2.51,3,11.68,11.68,0,0,1,1,2.81,30.82,30.82,0,0,1,.6,4.12c.13,1.6.2,3.68.2,6.22a61.28,61.28,0,0,1-.3,6.42,24.67,24.67,0,0,1-.9,4.71,5.87,5.87,0,0,1-1.71,2.81,3.85,3.85,0,0,1-2.51.9c-1.47,0-3.78-.93-6.92-2.81s-7-4-11.54-6.32a100.89,100.89,0,0,0-16.15-6.42,70.51,70.51,0,0,0-21-2.91,55.57,55.57,0,0,0-18.86,2.91,38.71,38.71,0,0,0-13.24,7.73,30.67,30.67,0,0,0-7.83,11.43,38,38,0,0,0-2.6,14q0,10.83,5,18.66a51.23,51.23,0,0,0,13.34,13.84,118.61,118.61,0,0,0,19,11q10.63,5,21.67,10.13t21.67,11.24a90.48,90.48,0,0,1,19,14.45,65.7,65.7,0,0,1,13.44,19.66Q573.33,282,573.33,297.42Z" transform="translate(-118.44 -102)"/><path class="cls-2" d="M796,333.53c0,2.14-.07,4-.2,5.62a22.9,22.9,0,0,1-.7,4.21,13.8,13.8,0,0,1-1.31,3.21A17.24,17.24,0,0,1,791,350a57.76,57.76,0,0,1-8.43,6.12,100.3,100.3,0,0,1-16,8,132.71,132.71,0,0,1-21.87,6.62,125.57,125.57,0,0,1-27,2.71q-25.29,0-45.65-8.43a92.16,92.16,0,0,1-34.7-24.88q-14.35-16.44-22.07-40.62t-7.73-55.68q0-32.29,8.33-57.58t23.37-42.83a99.93,99.93,0,0,1,36-26.78q21-9.24,46.45-9.23a112.64,112.64,0,0,1,21.87,2.1,140.55,140.55,0,0,1,19.66,5.32,89.12,89.12,0,0,1,16,7.42,54.81,54.81,0,0,1,9.73,6.92,23.31,23.31,0,0,1,3.51,4.12,14.19,14.19,0,0,1,1.31,3.31,33.44,33.44,0,0,1,.8,4.51,55.4,55.4,0,0,1,.3,6.22,48.6,48.6,0,0,1-.41,6.82,19.12,19.12,0,0,1-1.21,4.72,7.21,7.21,0,0,1-1.91,2.81,4.19,4.19,0,0,1-2.73.9c-1.88,0-4.5-1.31-7.86-3.91a126.73,126.73,0,0,0-13-8.63,105.84,105.84,0,0,0-19.36-8.63q-11.4-3.92-27.33-3.91a71.22,71.22,0,0,0-31.57,6.92,66.67,66.67,0,0,0-24.3,20.37q-10.1,13.44-15.64,32.8t-5.54,44.24q0,24.68,5.34,43.63t15.33,31.7a64,64,0,0,0,24.51,19.26Q703.85,343,722.2,343q15.52,0,27.13-3.81a105,105,0,0,0,19.76-8.53,155.13,155.13,0,0,0,13.42-8.52q5.24-3.81,8.27-3.81a4.65,4.65,0,0,1,2.42.6,4.17,4.17,0,0,1,1.61,2.3,21.05,21.05,0,0,1,.91,4.72Q796,328.93,796,333.53Z" transform="translate(-118.44 -102)"/></svg>